Coordinates
version=1
nRows=10
nColumns=33
inDegrees=yes

Units are S.I. units (second, meters, Newtons, ...)
Angles are in degrees.

endheader
time	ground_thorax_rot_x	ground_thorax_rot_y	ground_thorax_rot_z	ground_thorax_tx	ground_thorax_ty	ground_thorax_tz	clav_prot_r	clav_elev_r	scapula_abduction_r	scapula_elevation_r	scapula_upward_rot_r	scapula_winging_r	shoulder_elv_r	plane_of_elev_r	axial_rot_r	elbow_flexion_r	pro_sup_r	wrist_flex_r	wrist_dev_r	clav_prot_l	clav_elev_l	scapula_abduction_l	scapula_elevation_l	scapula_upward_rot_l	scapula_winging_l	shoulder_elv_l	plane_of_elev_l	axial_rot_l	elbow_flexion_l	pro_sup_l	wrist_flex_l	wrist_dev_l
      5.59000000	    -90.00000000	     90.00000000	    -90.00000000	   -147.35285768	    891.60237323	     -2.35434670	     26.37814102	     39.83544516	     45.00000000	     45.00000000	     13.74371889	   2145.70579421	   -259.46474860	     24.07679669	   -150.31063244	   1459.49979774	   -277.26651488	     16.00307721	      2.90509453	    -45.00000000	      5.78485679	     42.58448894	    -15.75092529	    -45.00000000	  -2414.74387460	   -777.84387641	    146.31681497	     17.20874529	   -709.91686128	     16.53171175	      9.91537505	    -21.81742995
      5.60000000	    -90.00000000	     90.00000000	    -90.00000000	   -143.54537900	    888.53855407	     -2.12862878	     26.50395600	     39.91180462	     45.00000000	     45.00000000	     13.65785276	   2145.38583250	   -259.56599116	     23.88250744	   -151.15524587	   1459.45641238	   -276.30383133	     15.88995145	      2.95883489	    -45.00000000	      5.94365126	     42.99187880	    -16.29102308	    -45.00000000	  -2414.60776688	   -778.08126606	    146.16586119	     17.61496918	   -710.09949742	     14.32896230	     10.17553222	    -21.59180859
      5.61000000	    -90.00000000	     90.00000000	    -90.00000000	   -139.68941354	    885.22925893	     -1.88297698	     26.68790220	     40.05589074	     45.00000000	     45.00000000	     13.61387478	   2144.94584129	   -259.81089452	     23.93574404	   -152.10171726	   1459.77580125	   -275.27143829	     15.70902322	      2.88385103	    -45.00000000	      6.94610922	     43.31566035	    -16.56460272	    -45.00000000	  -2414.80789659	   -778.27198890	    146.79247262	     18.90284334	   -710.32646439	     11.83408043	     11.25690523	    -21.54162043
      5.62000000	    -90.00000000	     90.00000000	    -90.00000000	   -135.78510751	    881.69220439	     -1.61708692	     26.80635483	     40.16656075	     45.00000000	     45.00000000	     13.57698798	   2144.55640845	   -259.94184404	     23.79515872	   -152.98179688	   1459.84794737	   -274.39865647	     15.61682506	      2.91779393	    -45.00000000	      7.27785651	     43.64438793	    -16.98399465	    -45.00000000	  -2414.76153020	   -778.48570586	    146.95848335	     19.57390925	   -710.52130648	      9.71320488	     11.68943024	    -21.28978711
      5.63000000	    -90.00000000	     90.00000000	    -90.00000000	   -131.83069981	    877.94923020	     -1.33416774	     26.87867052	     40.26138155	     45.00000000	     45.00000000	     13.57070345	   2144.20285946	   -260.04061835	     23.58810586	   -153.82736146	   1459.88394632	   -273.79157558	     15.56584564	      2.97708097	    -45.00000000	      7.16460337	     43.94390040	    -17.30543701	    -45.00000000	  -2414.64925475	   -778.65322857	    147.15477947	     19.83462719	   -710.72985813	      8.09507250	     11.69264740	    -20.96099198
      5.64000000	    -90.00000000	     90.00000000	    -90.00000000	   -127.82242845	    874.02299290	     -1.03938347	     26.96168819	     40.38707494	     45.00000000	     45.00000000	     13.57310602	   2143.76748886	   -260.14200523	     23.42386488	   -154.77886128	   1459.84069114	   -273.38964817	     15.57235500	      3.05803591	    -45.00000000	      7.33144275	     44.29792429	    -17.72967857	    -45.00000000	  -2414.56628061	   -778.83705680	    147.28453619	     20.40862758	   -710.92705734	      6.69113714	     11.88964358	    -20.69596358
      5.65000000	    -90.00000000	     90.00000000	    -90.00000000	   -123.76823439	    869.94961663	     -0.73909107	     27.14922440	     40.56557343	     45.00000000	     45.00000000	     13.61561596	   2143.07099070	   -260.40050963	     23.45817070	   -155.79168042	   1459.85227166	   -273.16167963	     15.50557849	      3.09312823	    -45.00000000	      8.53575873	     44.78268295	    -18.29263492	    -45.00000000	  -2414.61932182	   -779.10086138	    147.46290037	     22.06359995	   -711.12750344	      5.26224751	     13.01022164	    -20.54206747
      5.66000000	    -90.00000000	     90.00000000	    -90.00000000	   -119.66335938	    865.74968643	     -0.43791125	     27.16620665	     40.68160895	     45.00000000	     45.00000000	     13.62451888	   2142.65414627	   -260.50076718	     23.22355134	   -156.76578427	   1459.85631100	   -273.23555100	     15.58740401	      3.18020298	    -45.00000000	      8.19056107	     45.00000000	    -18.54549558	    -45.00000000	  -2414.54256699	   -779.24112762	    147.74471644	     22.02439339	   -711.29015741	      4.31220256	     12.76240084	    -20.22948514
      5.67000000	    -90.00000000	     90.00000000	    -90.00000000	   -115.52660824	    861.46650431	     -0.13948673	     27.22435764	     40.81911818	     45.00000000	     45.00000000	     13.67464543	   2142.10593430	   -260.64149993	     23.05736919	   -157.82478823	   1459.75073667	   -273.56074264	     15.67094881	      3.29532655	    -45.00000000	      8.26186535	     45.00000000	    -18.75715244	    -45.00000000	  -2414.06923213	   -779.49444633	    147.87929327	     22.41693417	   -711.44183928	      3.52449552	     12.79838953	    -19.96128494
      5.68000000	    -90.00000000	     90.00000000	    -90.00000000	   -111.37123818	    857.13269274	      0.15562523	     27.29393301	     40.99462160	     45.00000000	     45.00000000	     13.68917177	   2141.51661655	   -260.74251593	     22.92249474	   -158.96988998	   1459.63039482	   -274.23157208	     15.86657997	      3.42361214	    -45.00000000	      8.42407110	     45.00000000	    -19.05945282	    -45.00000000	  -2413.57490284	   -779.83341292	    147.95963101	     23.12931488	   -711.66770212	      2.95929905	     13.12699189	    -19.72428695
